<svg id="svg" viewBox="0 0 1440 600" preserveAspectRatio="none" xmlns="http://www.w3.org/2000/svg" class="transition duration-300 ease-in-out delay-150"><defs><linearGradient id="gradient" x1="99%" y1="40%" x2="1%" y2="60%"><stop offset="5%" stop-color="#f7b538"></stop><stop offset="95%" stop-color="#a62639"></stop></linearGradient></defs><path d="M 0,600 C 0,600 0,150 0,150 C 122.71428571428572,176.07142857142856 245.42857142857144,202.14285714285714 364,196 C 482.57142857142856,189.85714285714286 597,151.49999999999997 731,150 C 865,148.50000000000003 1018.5714285714287,183.8571428571429 1140,190 C 1261.4285714285713,196.1428571428571 1350.7142857142858,173.07142857142856 1440,150 C 1440,150 1440,600 1440,600 Z" stroke="none" stroke-width="0" fill="url(#gradient)" fill-opacity="0.4" class="transition-all duration-300 ease-in-out delay-150 path-0"></path><defs><linearGradient id="gradient" x1="99%" y1="40%" x2="1%" y2="60%"><stop offset="5%" stop-color="#f7b538"></stop><stop offset="95%" stop-color="#a62639"></stop></linearGradient></defs><path d="M 0,600 C 0,600 0,300 0,300 C 111.5,310.9642857142857 223,321.92857142857144 359,326 C 495,330.07142857142856 655.5000000000001,327.25000000000006 773,307 C 890.4999999999999,286.74999999999994 965,249.07142857142856 1069,245 C 1173,240.92857142857144 1306.5,270.4642857142857 1440,300 C 1440,300 1440,600 1440,600 Z" stroke="none" stroke-width="0" fill="url(#gradient)" fill-opacity="0.53" class="transition-all duration-300 ease-in-out delay-150 path-1"></path><defs><linearGradient id="gradient" x1="99%" y1="40%" x2="1%" y2="60%"><stop offset="5%" stop-color="#f7b538"></stop><stop offset="95%" stop-color="#a62639"></stop></linearGradient></defs><path d="M 0,600 C 0,600 0,450 0,450 C 88.75,436.82142857142856 177.5,423.64285714285717 300,434 C 422.5,444.35714285714283 578.7500000000001,478.25 703,483 C 827.2499999999999,487.75 919.5,463.35714285714283 1037,453 C 1154.5,442.64285714285717 1297.25,446.32142857142856 1440,450 C 1440,450 1440,600 1440,600 Z" stroke="none" stroke-width="0" fill="url(#gradient)" fill-opacity="1" class="transition-all duration-300 ease-in-out delay-150 path-2"></path></svg>